<?xml version="1.0" standalone="no"?><!DOCTYPE svg PUBLIC "-//W3C//DTD SVG 1.1//EN" "http://www.w3.org/Graphics/SVG/1.1/DTD/svg11.dtd"><svg t="1650335265105" class="icon" viewBox="0 0 1024 1024" version="1.1" xmlns="http://www.w3.org/2000/svg" p-id="5261" xmlns:xlink="http://www.w3.org/1999/xlink" width="200" height="200"><defs><style type="text/css">@font-face { font-family: feedback-iconfont; src: url("//at.alicdn.com/t/font_1031158_u69w8yhxdu.woff2?t=1630033759944") format("woff2"), url("//at.alicdn.com/t/font_1031158_u69w8yhxdu.woff?t=1630033759944") format("woff"), url("//at.alicdn.com/t/font_1031158_u69w8yhxdu.ttf?t=1630033759944") format("truetype"); }
</style></defs><path d="M512 426.666667a213.333333 213.333333 0 1 1 0 426.666666 213.333333 213.333333 0 0 1 0-426.666666z m0 42.666666a170.666667 170.666667 0 1 0 0 341.333334 170.666667 170.666667 0 0 0 0-341.333334z m21.333333 42.666667v119.168l79.104 79.061333-30.208 30.208-85.333333-85.333333A21.333333 21.333333 0 0 1 490.666667 640v-128h42.666666z" p-id="5262"></path><path d="M384 42.666667v85.333333h298.666667V42.666667h42.666666v85.333333h192A64 64 0 0 1 981.333333 192v725.333333a64 64 0 0 1-64 64h-810.666666A64 64 0 0 1 42.666667 917.333333v-725.333333A64 64 0 0 1 106.666667 128H341.333333V42.666667h42.666667z m554.666667 320H85.333333v554.666666a21.333333 21.333333 0 0 0 21.333334 21.333334h810.666666a21.333333 21.333333 0 0 0 21.333334-21.333334v-554.666666zM341.333333 170.666667H106.666667a21.333333 21.333333 0 0 0-21.333334 21.333333v128h853.333334v-128a21.333333 21.333333 0 0 0-21.333334-21.333333H725.333333v85.333333h-42.666666V170.666667H384v85.333333H341.333333V170.666667z" p-id="5263"></path></svg>